<svg width="16" height="16" viewBox="0 0 16 16" fill="none" xmlns="http://www.w3.org/2000/svg"><rect width="16" height="16" rx="4" transform="matrix(-1 0 0 1 16 0)" fill="#000000"/><path d="M9.926 4.06C9.518 3.447 8.867 3 8 3s-1.518.447-1.926 1.06c-.396.594-.574 1.347-.574 2.065 0 1.022.287 1.969.789 2.8.377-.256.697-.551.955-.868a4.108 4.108 0 0 1-.494-1.932c0-.532.135-1.029.364-1.372.216-.325.503-.503.886-.503s.67.178.886.503c.229.343.364.84.364 1.372 0 2.663-2.747 5-6.25 5v1.25c3.934 0 7.5-2.663 7.5-6.25 0-.718-.178-1.471-.574-2.065ZM10.079 10.543a7.953 7.953 0 0 1-.95.929 8.654 8.654 0 0 0 3.871.903v-1.25a7.43 7.43 0 0 1-2.921-.582Z" fill="#FFFFFF"/></svg>
